<svg xmlns="http://www.w3.org/2000/svg" viewBox="0 0 54.888 54.888" enable-background="new 0 0 54.888 54.888"><path d="m52.1.249c-.216-.189-.501-.275-.789-.241l-31 4.01c-.499.065-.872.489-.872.992v6.02 4.212 26.03c-1.737-1.99-4.446-3.275-7.499-3.275-5.247 0-9.5 3.781-9.5 8.444s4.253 8.444 9.5 8.444 9.5-3.781 9.5-8.444c0-.332-.027-.658-.069-.981.04-.108.069-.221.069-.343v-29l29-3.753v18.909c-1.738-1.989-4.447-3.274-7.5-3.274-5.247 0-9.5 3.781-9.5 8.444s4.253 8.444 9.5 8.444 9.5-3.781 9.5-8.444c0-.092-.012-.181-.015-.272.002-.027.015-.05.015-.077v-24.868-4.211-6.02c0-.288-.124-.562-.34-.751" fill="#ea6248"/></svg>