<svg xmlns="http://www.w3.org/2000/svg" viewBox="0 0 60 60" enable-background="new 0 0 60 60" xmlns:xlink="http://www.w3.org/1999/xlink"><path d="m53.792 28.03l-23.792-18.34-23.792 18.34c-1.228.946-2.974.801-4.03-.335-1.195-1.287-1.033-3.32.35-4.402l25.43-19.895 2.04-1.896 2.041 1.896 25.43 19.895c1.383 1.082 1.545 3.115.35 4.402-1.055 1.136-2.801 1.281-4.03.335" fill="#b02721" id="0"/><use xlink:href="#0"/><g fill="#e0e1e2"><path d="m30 9.688l-23 17.729v.083 30h46v-30-.083z"/><path d="m59 47.5c-.553 0-1 .448-1 1v1h-1v-1c0-.552-.447-1-1-1s-1 .448-1 1v1h-2c-.553 0-1 .448-1 1s.447 1 1 1h2v3h-2c-.553 0-1 .448-1 1s.447 1 1 1h2v1c0 .552.447 1 1 1s1-.448 1-1v-1h1v1c0 .552.447 1 1 1s1-.448 1-1v-9c0-.552-.447-1-1-1m-2 7v-3h1v3h-1"/><path d="m7 51.5c.553 0 1-.448 1-1s-.447-1-1-1h-2v-1c0-.552-.447-1-1-1s-1 .448-1 1v1h-1v-1c0-.552-.447-1-1-1s-1 .448-1 1v9c0 .552.447 1 1 1s1-.448 1-1v-1h1v1c0 .552.447 1 1 1s1-.448 1-1v-1h2c.553 0 1-.448 1-1s-.447-1-1-1h-2v-3h2m-4 3h-1v-3h1v3"/></g><g fill="#556080"><path d="m15 26.5h12v8h-12z"/><path d="m15 40.5h12v10h-12z"/><path d="m33 26.5h12v8h-12z"/><path d="m33 40.5h12v17h-12z"/></g><g fill="#7383bf"><path d="m33 26.5h12v6h-12z"/><path d="m15 26.5h12v2.765h-12z"/><path d="m22 44.5v-4h-2v4h-5v2h5v4h2v-4h5v-2z"/></g></svg>