<svg xmlns="http://www.w3.org/2000/svg" viewBox="0 0 58 58" enable-background="new 0 0 58 58"><circle cx="29" cy="29" r="29" fill="#e7eced"/><path d="m29 4c13.785 0 25 11.215 25 25s-11.215 25-25 25-25-11.215-25-25 11.215-25 25-25m0-4c-16.02 0-29 12.984-29 29s12.984 29 29 29 29-12.984 29-29-12.984-29-29-29z" fill="#424a60"/><g fill="#7383bf"><path d="m29 5.879c-.552 0-1 .447-1 1v1c0 .553.448 1 1 1s1-.447 1-1v-1c0-.553-.448-1-1-1"/><path d="m29 48.879c-.552 0-1 .447-1 1v1c0 .553.448 1 1 1s1-.447 1-1v-1c0-.553-.448-1-1-1"/><path d="m51 27.879h-1c-.552 0-1 .447-1 1s.448 1 1 1h1c.552 0 1-.447 1-1s-.448-1-1-1"/><path d="m8 27.879h-1c-.552 0-1 .447-1 1s.448 1 1 1h1c.552 0 1-.447 1-1s-.448-1-1-1"/><path d="m43.849 12.615l-.707.707c-.391.391-.391 1.023 0 1.414.195.195.451.293.707.293s.512-.098.707-.293l.707-.707c.391-.391.391-1.023 0-1.414s-1.023-.391-1.414 0"/><path d="m13.444 43.02l-.707.707c-.391.391-.391 1.023 0 1.414.195.195.451.293.707.293s.512-.098.707-.293l.707-.707c.391-.391.391-1.023 0-1.414s-1.024-.39-1.414 0"/><path d="m44.556 43.02c-.391-.391-1.023-.391-1.414 0s-.391 1.023 0 1.414l.707.707c.195.195.451.293.707.293s.512-.098.707-.293c.391-.391.391-1.023 0-1.414l-.707-.707"/><path d="m14.15 12.615c-.391-.391-1.023-.391-1.414 0s-.391 1.023 0 1.414l.707.707c.195.195.451.293.707.293s.512-.098.707-.293c.391-.391.391-1.023 0-1.414l-.707-.707"/></g><g fill="none" stroke="#424a60" stroke-linejoin="round" stroke-linecap="round" stroke-width="2" stroke-miterlimit="10"><path d="m26 28.879h-8"/><path d="m29 25.879v-11"/><circle cx="29" cy="28.879" r="3"/></g></svg>